<?xml version="1.0" encoding="UTF-8" standalone="no"?><!DOCTYPE svg PUBLIC "-//W3C//DTD SVG 1.1//EN" "http://www.w3.org/Graphics/SVG/1.1/DTD/svg11.dtd"><svg width="100%" height="100%" viewBox="0 0 1091 207" version="1.1" xmlns="http://www.w3.org/2000/svg" xmlns:xlink="http://www.w3.org/1999/xlink" xml:space="preserve" xmlns:serif="http://www.serif.com/" style="fill-rule:evenodd;clip-rule:evenodd;stroke-linejoin:round;stroke-miterlimit:2;"><g id="Color-no-tagline-1" serif:id="Color no tagline 1"><text x="1074.55px" y="70.576px" style="font-family:'Montserrat-Regular', 'Montserrat';font-size:20px;fill:#4d5351;">®</text><g id="color"><path d="M299.97,92.5c0,-5.8 -3.22,-8.94 -11.7,-8.94l-36.6,0l0,17.14l37.62,0c7.78,0 10.67,-2.9 10.67,-8.2m0.02,47.47l-17.96,-25.27l-30.37,0l0,25.27l-15.1,0l0,-70.4l54.36,0c7.34,0 13.36,1.98 17.8,6.2c4.46,4.2 6.6,9.86 6.6,16.73c0,6.03 -1.75,11.1 -5.4,14.96c-2.73,2.9 -6.24,4.87 -10.44,6l18.23,26.5l-17.7,0l-0.02,0.01Zm28.84,0l0,-70.4l70.97,0l0,13.98l-55.9,0l0,12.94l38.85,0l0,13.98l-38.84,0l0,15.5l58.45,0l0,14l-73.53,0Zm119.72,-54.52l-13.68,25.7l27.2,0l-13.52,-25.7Zm28.63,54.52l-7.64,-14.83l-42.17,0l-7.64,14.83l-16.67,0l37.24,-70.4l16.3,0l37.24,70.4l-16.66,0Zm23.05,-0.01l0,-70.39l15.1,0l0,56.42l51.2,0l0,13.97l-66.3,0Z" style="fill:#5d91c2;"/><path d="M647.57,139.97l-17.24,0l-15.03,-50.27l-15,50.27l-17.06,0l-23.24,-70.4l16.6,0l15.16,50.43l15.06,-50.44l16.98,0l15.1,50.53l15.13,-50.54l16.6,0l-23.06,70.4l0,0.02Zm30.08,0l0,-70.4l70.96,0l0,13.98l-55.86,0l0,12.94l38.84,0l0,13.98l-38.84,0l0,15.5l58.44,0l0,14l-73.54,0Zm119.72,-54.52l-13.67,25.7l27.18,0l-13.5,-25.7l-0.01,0Zm28.63,54.52l-7.64,-14.83l-42.16,0l-7.65,14.83l-16.67,0l37.25,-70.4l16.3,0l37.25,70.4l-16.68,0Zm23.06,-0.01l0,-70.39l15.08,0l0,56.42l51.2,0l0,13.97l-66.28,0Zm98.87,-56.4l0,56.42l-15.1,0l0,-56.42l-31.7,0l0,-14l78.5,0l0,14l-31.7,0Zm103.97,56.39l0,-29.48l-49.1,0l0,29.5l-15.07,0l0,-70.4l15.07,0l0,26.92l49.1,0l0,-26.94l15.1,0l0,70.4l-15.1,0Z" style="fill:#5da757;"/><path d="M54.73,16.96l22.02,-16.96l54.93,41.12l-56.12,43.28l-10.12,-27.46l21.5,-16.72l-32.2,-23.27l-0.01,0.01Z" style="fill:#5d91c2;"/><path d="M9.33,128.07l-9.33,-26.17l56.1,-39.54l23.8,66.74l-29.22,1.14l-9.27,-25.6l-32.07,23.43l-0.01,0Z" style="fill:#5da757;"/><path d="M100.97,205.6l-27.78,0.77l-20.28,-65.55l70.83,-2l-7.94,28.13l-27.2,0.9l12.37,37.75Z" style="fill:#5d91c2;"/><path d="M203,142.4l-7.83,26.66l-68.6,-0.98l19.96,-68l24.3,16.26l-7.54,26.15l39.7,-0.1l0.01,0.01Z" style="fill:#5da757;"/><path d="M174.44,25.8l22.93,15.72l-22.13,64.94l-58.5,-40l22.98,-18.1l22.54,15.26l12.18,-37.8l0,-0.02Z" style="fill:#ef8550;"/></g></g></svg>