<svg xmlns="http://www.w3.org/2000/svg" viewBox="0 0 673.22 622.63"><defs><style>.cls-1{fill:#181208;}.cls-2{fill:#f1b44c;}.cls-3{fill:#30240f;}.cls-4{fill:#795a26;}.cls-5{fill:#60481e;}.cls-6{fill:#483617;}.cls-7{fill:#916c2e;}.cls-8{fill:#c1903d;}.cls-9{fill:#a97e35;}.cls-10{fill:#d9a244;}</style></defs><title>Asset 35</title><g id="Layer_2" data-name="Layer 2"><g id="Layer_1-2" data-name="Layer 1"><path class="cls-1" d="M525.11,43.59,317.84,312.65V3.62A310.13,310.13,0,0,1,453.78,12.9C460.86,15,490.13,24.12,525.11,43.59Z"/><path class="cls-2" d="M317.84,3.62v309L139.9,81.68C169.33,59,234.09,16.27,317.84,3.62Z"/><path class="cls-3" d="M663.89,206.6l-346,106L525.11,43.59c49.85,27.75,111.28,76.51,136.65,156Q662.89,203.07,663.89,206.6Z"/><path class="cls-4" d="M507,558.11a363.75,363.75,0,0,1-62.49,33.39c-43.34,17.88-85.94,27.69-126.62,30.36V312.65Z"/><path class="cls-5" d="M638.62,410.93c-29.53,58.19-76,110.17-131.67,147.18L317.84,312.65Z"/><path class="cls-6" d="M638.62,410.93,317.84,312.65l346.05-106C683.27,274.41,671.34,346.48,638.62,410.93Z"/><path class="cls-7" d="M317.84,312.65V621.86c-75.11,5-143.66-14.37-198.15-52Z"/><path class="cls-8" d="M317.84,312.65,6.53,408C-8.55,345.2,3.84,281,29.76,224.37Z"/><path class="cls-9" d="M317.84,312.65,119.69,569.85C73.86,538.18,38,493.55,16.51,439.51A231.68,231.68,0,0,1,6.53,408Z"/><path class="cls-10" d="M317.84,312.65,29.76,224.37c23.48-51.3,58.07-96.44,93.4-128.81,1.78-1.64,7.54-6.77,16.74-13.88Z"/></g></g></svg>